HIERARCHY
ROOT hip
{
  OFFSET 0 0 0
  CHANNELS 6 Xposition Yposition Zposition Zrotation Yrotation Xrotation
  JOINT abdomen
  {
    OFFSET 0 20.6881 -0.73152
    CHANNELS 3 Zrotation Xrotation Yrotation
    JOINT chest
    {
      OFFSET 0 11.7043 -0.48768
      CHANNELS 3 Zrotation Xrotation Yrotation
      JOINT neck
      {
        OFFSET 0 22.1894 -2.19456
        CHANNELS 3 Zrotation Xrotation Yrotation
        JOINT head
        {
          OFFSET -0.24384 7.07133 1.2192
          CHANNELS 3 Zrotation Xrotation Yrotation
          JOINT leftEye
          {
            OFFSET 4.14528 8.04674 8.04672
            CHANNELS 3 Zrotation Xrotation Yrotation
            End Site
            {
              OFFSET 1 0 0
            }
          }
          JOINT rightEye
          {
            OFFSET -3.6576 8.04674 8.04672
            CHANNELS 3 Zrotation Xrotation Yrotation
            End Site
            {
              OFFSET 1 0 0
            }
          }
        }
      }
      JOINT rCollar
      {
        OFFSET -2.68224 19.2634 -4.8768
        CHANNELS 3 Zrotation Xrotation Yrotation
        JOINT rShldr
        {
          OFFSET -8.77824 -1.95073 1.46304
          CHANNELS 3 Zrotation Xrotation Yrotation
          JOINT rForeArm
          {
            OFFSET -28.1742 -1.7115 0.48768
            CHANNELS 3 Zrotation Xrotation Yrotation
            JOINT rHand
            {
              OFFSET -22.5879 0.773209 7.07136
              CHANNELS 3 Zrotation Xrotation Yrotation
              JOINT rThumb1
              {
                OFFSET -1.2192 -0.487915 3.41376
                CHANNELS 3 Zrotation Xrotation Yrotation
                JOINT rThumb2
                {
                  OFFSET -3.37035 -0.52449 3.41376
                  CHANNELS 3 Zrotation Xrotation Yrotation
                  End Site
                  {
                    OFFSET -1.78271 -1.18214 1.43049
                  }
                }
              }
              JOINT rIndex1
              {
                OFFSET -7.75947 0.938293 5.60832
                CHANNELS 3 Zrotation Xrotation Yrotation
                JOINT rIndex2
                {
                  OFFSET -2.54057 -0.884171 1.56538
                  CHANNELS 3 Zrotation Xrotation Yrotation
                  End Site
                  {
                    OFFSET -1.62519 -0.234802 1.16502
                  }
                }
              }
              JOINT rMid1
              {
                OFFSET -8.24714 1.18213 3.41376
                CHANNELS 3 Zrotation Xrotation Yrotation
                JOINT rMid2
                {
                  OFFSET -3.10165 -0.590103 1.0647
                  CHANNELS 3 Zrotation Xrotation Yrotation
                  End Site
                  {
                    OFFSET -2.48547 -0.328903 0.83742
                  }
                }
              }
              JOINT rRing1
              {
                OFFSET -8.82822 0.546677 1.51678
                CHANNELS 3 Zrotation Xrotation Yrotation
                JOINT rRing2
                {
                  OFFSET -2.60934 -0.819778 -0.0198488
                  CHANNELS 3 Zrotation Xrotation Yrotation
                  End Site
                  {
                    OFFSET -2.33842 -0.294052 0.168128
                  }
                }
              }
              JOINT rPinky1
              {
                OFFSET -8.27202 -0.0477905 -0.4584
                CHANNELS 3 Zrotation Xrotation Yrotation
                JOINT rPinky2
                {
                  OFFSET -1.82734 -0.647385 -0.700984
                  CHANNELS 3 Zrotation Xrotation Yrotation
                  End Site
                  {
                    OFFSET -1.69225 -0.51767 -0.607171
                  }
                }
              }
            }
          }
        }
      }
      JOINT lCollar
      {
        OFFSET 2.68224 19.2634 -4.8768
        CHANNELS 3 Zrotation Xrotation Yrotation
        JOINT lShldr
        {
          OFFSET 8.77824 -1.95073 1.46304
          CHANNELS 3 Zrotation Xrotation Yrotation
          JOINT lForeArm
          {
            OFFSET 28.1742 -1.7115 0.48768
            CHANNELS 3 Zrotation Xrotation Yrotation
            JOINT lHand
            {
              OFFSET 22.5879 0.773209 7.07136
              CHANNELS 3 Zrotation Xrotation Yrotation
              JOINT lThumb1
              {
                OFFSET 1.2192 -0.487915 3.41376
                CHANNELS 3 Zrotation Xrotation Yrotation
                JOINT lThumb2
                {
                  OFFSET 3.37035 -0.52449 3.41376
                  CHANNELS 3 Zrotation Xrotation Yrotation
                  End Site
                  {
                    OFFSET 1.78271 -1.18214 1.43049
                  }
                }
              }
              JOINT lIndex1
              {
                OFFSET 7.75947 0.938293 5.60832
                CHANNELS 3 Zrotation Xrotation Yrotation
                JOINT lIndex2
                {
                  OFFSET 2.54057 -0.884171 1.56538
                  CHANNELS 3 Zrotation Xrotation Yrotation
                  End Site
                  {
                    OFFSET 1.62519 -0.234802 1.16502
                  }
                }
              }
              JOINT lMid1
              {
                OFFSET 8.24714 1.18213 3.41376
                CHANNELS 3 Zrotation Xrotation Yrotation
                JOINT lMid2
                {
                  OFFSET 3.10165 -0.590103 1.0647
                  CHANNELS 3 Zrotation Xrotation Yrotation
                  End Site
                  {
                    OFFSET 2.48547 -0.328903 0.83742
                  }
                }
              }
              JOINT lRing1
              {
                OFFSET 8.82822 0.546677 1.51678
                CHANNELS 3 Zrotation Xrotation Yrotation
                JOINT lRing2
                {
                  OFFSET 2.60934 -0.819778 -0.0198488
                  CHANNELS 3 Zrotation Xrotation Yrotation
                  End Site
                  {
                    OFFSET 2.33842 -0.294052 0.168128
                  }
                }
              }
              JOINT lPinky1
              {
                OFFSET 8.27202 -0.0477905 -0.4584
                CHANNELS 3 Zrotation Xrotation Yrotation
                JOINT lPinky2
                {
                  OFFSET 1.82734 -0.647385 -0.700984
                  CHANNELS 3 Zrotation Xrotation Yrotation
                  End Site
                  {
                    OFFSET 1.69225 -0.51767 -0.607171
                  }
                }
              }
            }
          }
        }
      }
    }
  }
  JOINT rButtock
  {
    OFFSET -8.77824 4.35084 1.2192
    CHANNELS 3 Zrotation Xrotation Yrotation
    JOINT rThigh
    {
      OFFSET 0 -1.70687 -2.19456
      CHANNELS 3 Zrotation Xrotation Yrotation
      JOINT rShin
      {
        OFFSET 0 -36.8199 0.73152
        CHANNELS 3 Zrotation Xrotation Yrotation
        JOINT rFoot
        {
          OFFSET 0.73152 -45.1104 -5.12064
          CHANNELS 3 Zrotation Xrotation Yrotation
          End Site
          {
            OFFSET -1.1221 -3.69964 12.103
          }
        }
      }
    }
  }
  JOINT lButtock
  {
    OFFSET 8.77824 4.35084 1.2192
    CHANNELS 3 Zrotation Xrotation Yrotation
    JOINT lThigh
    {
      OFFSET 0 -1.70687 -2.19456
      CHANNELS 3 Zrotation Xrotation Yrotation
      JOINT lShin
      {
        OFFSET 0 -36.8199 0.73152
        CHANNELS 3 Zrotation Xrotation Yrotation
        JOINT lFoot
        {
          OFFSET -0.73152 -45.1104 -5.12064
          CHANNELS 3 Zrotation Xrotation Yrotation
          End Site
          {
            OFFSET 1.1221 -3.69964 12.103
          }
        }
      }
    }
  }
}
MOTION
Frames:	7
Frame Time:	0.00833333
0.0 0.0 0.0 0.0 0.0 0.0 0.0 0.0 0.0 0.0 0.0 0.0 0.0 0.0 0.0 0.0 0.0 0.0 0.0 0.0 0.0 0.0 0.0 0.0 0.0 0.0 0.0 0.0 0.0 0.0 0.0 0.0 0.0 0.0 0.0 0.0 0.0 0.0 0.0 0.0 0.0 0.0 0.0 0.0 0.0 0.0 0.0 0.0 0.0 0.0 0.0 0.0 0.0 0.0 0.0 0.0 0.0 0.0 0.0 0.0 0.0 0.0 0.0 0.0 0.0 0.0 0.0 0.0 0.0 0.0 0.0 0.0 0.0 0.0 0.0 0.0 0.0 0.0 0.0 0.0 0.0 0.0 0.0 0.0 0.0 0.0 0.0 0.0 0.0 0.0 0.0 0.0 0.0 0.0 0.0 0.0 0.0 0.0 0.0 0.0 0.0 0.0 0.0 0.0 0.0 0.0 0.0 0.0 0.0 0.0 0.0 0.0 0.0 0.0 0.0 0.0 0.0 0.0 0.0 0.0 0.0 0.0 0.0 0.0 0.0 0.0 0.0 0.0 0.0 0.0 0.0 0.0
64.8849 82.2663 7.193389999999999 -0.0 -0.0 -0.0 -0.0 -4.771896 -180.0 -0.0 -4.771896 -180.0 2.348711 19.742543 -170.817555 5.72704 19.065302 169.446286 -0.0 -0.0 0.0 -0.0 -0.0 0.0 -9.651699 34.836178 11.199233 -167.65398 58.445358 178.601745 89.244898 71.917928 -104.651182 -150.070229 62.558473 126.786746 78.463693 -49.563762 30.296082 -34.155554 11.380134 -4.444046 -173.600814 -52.692785 119.892759 -66.231915 51.588382 60.918157 -36.036059 51.723116 29.832321 -160.635595 8.60042 144.049608 -70.641094 72.965227 88.425717 27.666752 77.310013 -20.905871 -146.226238 15.470244 -142.747894 -170.04053 71.433558 -142.193681 159.221365 -48.725035 -170.567307 111.877801 60.307626 -121.217987 -173.577011 -30.31196 -140.558215 -177.449725 4.389887 -145.331297 7.758532 7.439094 -1.682075 122.067931 -17.232831 -107.810028 117.900883 27.950241 -99.678959 175.522426 -51.96675 -120.84107 158.521826 -0.192208 -142.144949 62.562356 63.805757 -58.537441 145.119466 0.267753 179.212454 -22.2631 29.142503 5.75541 8.191002 -17.575975 7.729117 129.388902 -31.781375 126.184985 -0.0 0.0 -0.0 -0.0 -0.0 -0.0 -2.721753 1.041334 -25.607042 -58.481504 -28.233569 31.209048 -0.0 0.0 -0.0 -0.0 -0.0 -0.0 2.721753 1.041334 25.607042 58.481504 -28.233569 -31.209048
64.8871 82.205 7.04653 -0.0 0.0 -0.0 -0.0 -4.771896 -180.0 0.0 -4.771896 180.0 12.074363 9.276161 97.602307 -7.588179 13.190878 -97.706844 -0.0 -0.0 0.0 -0.0 -0.0 0.0 -80.1661 68.371792 83.260848 -145.631406 75.541837 165.573677 -168.449322 -5.686221 176.500508 5.49785 -16.735997 1.38855 85.58426 -50.525486 35.246446 -68.74946 -86.413519 -107.664645 60.461659 -70.523647 15.71111 -158.373464 -15.05112 105.226579 -82.840589 61.110826 74.532293 0.961091 8.309519 -1.664903 0.000474 0.063775 0.020036 -2.16925 21.513076 3.143292 -152.347825 37.910887 -147.688612 -41.95782 -48.151415 -44.485432 80.1661 68.371792 -83.260848 -16.928347 14.037338 0.169172 -18.283616 71.777262 48.057126 -174.822659 -3.98939 -145.053095 121.36458 30.329582 -71.957921 -25.371871 -38.634093 -27.027419 -88.792192 -75.499035 -40.049684 179.868693 -39.262953 -98.978884 12.843095 28.997118 -9.149609 165.370911 -3.218142 -144.763284 145.121957 1.974539 179.748654 145.41112 1.915609 179.09047 75.778902 -51.667921 74.249466 -2.347841 -3.301119 -0.504913 -0.0 0.0 -0.0 -0.0 -2.27635 -180.0 -6.880793 -5.921355 -107.859822 -11.465574 25.060334 -64.504817 -0.0 0.0 -0.0 -0.0 -2.27635 -180.0 6.880793 -5.921355 107.859822 11.465574 25.060334 64.504817
64.8871 82.1327 6.88691 -0.0 -0.0 -0.0 -0.0 -4.771896 -180.0 0.0 -4.771896 -180.0 -7.779573 7.246478 -63.304714 9.952377 3.714708 63.474534 -0.0 0.0 -0.0 -0.0 0.0 -0.0 -80.1661 68.371792 83.260848 16.92521 14.247477 -0.155641 7.995637 63.488323 -38.20653 172.04833 -12.494866 144.361663 -158.449624 3.763294 88.550318 -33.862083 -25.277036 12.966372 0.184726 -0.300416 -0.104009 -161.053066 3.390875 108.104118 -167.375306 -28.008469 145.269175 5.061486 2.853787 1.878167 0.004877 1.769515 0.555887 -0.153309 0.269487 -0.30174 -139.224096 -4.39683 -136.390672 -2.27213 -16.45548 -7.374789 9.651699 34.836178 -11.199233 0.786826 -57.814369 11.75187 -165.573046 -40.980948 -136.407716 176.882096 21.836835 -144.631939 -1.842452 -1.827119 0.254339 111.77272 2.7368 -101.553279 19.170572 24.114561 -13.380841 108.327053 50.532824 -76.349056 -68.983989 -80.15399 -40.578188 167.378488 -14.321945 -140.738556 145.121954 1.975391 179.748922 65.976997 -77.607801 97.684702 -0.098846 0.258289 -0.091255 0.716653 -1.945547 0.62097 -0.0 0.0 -0.0 -0.0 -0.0 -0.0 -2.721753 1.041334 -25.607042 -58.481504 -28.233569 31.209048 -0.0 0.0 -0.0 -0.0 -0.0 -0.0 2.721753 1.041334 25.607042 58.481504 -28.233569 -31.209048
64.889 82.0597 6.716610000000001 -0.0 0.0 -0.0 -0.0 -4.771896 -180.0 -0.0 -4.771896 -180.0 10.50515 4.498364 68.886613 -7.991713 8.18131 -68.727902 0.0 -0.0 -0.0 0.0 -0.0 -0.0 0.163072 -0.990049 -0.218539 -0.146197 -0.01217 0.160364 -1.84798 6.828415 -0.013523 1.840702 -5.822849 0.293277 -178.927535 -16.453687 89.421826 -128.812487 15.816851 64.1409 -19.170572 24.114561 13.380841 -173.206501 -14.001875 115.368248 -160.826363 -7.141801 143.31627 -1.841164 21.23414 4.761034 -145.119721 0.310087 -179.225753 -68.016327 -77.880529 -99.874412 -159.880529 65.698544 -151.09429 -164.3319 56.129756 -143.905189 158.897905 -36.946461 -168.196659 -7.872884 10.293036 -21.163717 179.836484 63.704628 177.611424 6.081779 19.053911 -0.362666 78.030619 38.689342 -42.41267 85.452054 -3.122839 -65.856153 -29.398793 -49.64614 4.160016 -114.345484 -55.848682 -58.223338 36.036059 51.723116 -29.832321 168.288284 -18.510314 -146.971167 0.000142 -0.018512 0.005816 1.218327 13.718703 -1.885976 23.391137 -36.34947 22.493225 -0.53412 -3.014311 -0.499951 -0.0 0.0 -0.0 -0.0 -2.27635 -180.0 -6.880793 -5.921355 -107.859822 -11.465574 25.060334 -64.504817 -0.0 0.0 -0.0 -0.0 -2.27635 -180.0 6.880793 -5.921355 107.859822 11.465574 25.060334 64.504817
64.8793 81.964 6.528910000000001 -0.0 0.0 -0.0 -0.0 -4.771896 -180.0 0.0 -4.771896 180.0 11.359575 6.157081 79.425429 -8.145262 10.039281 -79.321748 0.0 -0.0 -0.0 0.0 -0.0 -0.0 -142.973735 39.431617 147.390037 23.204946 -13.480853 6.58883 174.266956 -23.645948 174.148138 -13.347213 37.558371 3.211509 4.53085 -4.514112 -0.520964 11.466779 -20.415183 -12.448203 -19.170572 24.114561 13.380841 -70.771683 52.924494 43.700498 -175.766492 -50.334504 144.098384 -0.872424 14.757445 5.301614 0.004875 1.770451 0.556181 -85.526883 79.093052 88.457872 -126.797849 -26.619602 -124.512652 -148.434558 24.275601 -146.454609 158.417022 -29.366393 -166.793865 -6.019288 18.87558 -22.09947 -11.989417 -57.413519 26.819536 -172.943094 -9.812294 -144.627021 -1.590029 -1.575931 0.222909 45.65607 28.591812 -40.485035 77.667448 43.02965 -64.538509 92.308334 60.872377 -68.124507 12.843095 28.997118 -9.149609 163.757326 2.076177 -144.084783 0.000142 -0.018533 0.005823 1.073451 12.351893 -1.68095 154.16448 45.105972 148.907641 -2.452318 -2.748898 4.095401 -0.0 0.0 -0.0 -0.0 -0.0 -0.0 7.081855 4.181059 77.332942 -38.390708 -74.728741 -133.183286 -0.0 0.0 -0.0 -0.0 -0.0 -0.0 -7.081855 4.181059 -77.332942 38.390708 -74.728741 133.183286
64.8688 81.8702 6.3491800000000005 -0.0 0.0 -0.0 -0.0 -4.771896 -180.0 0.0 -4.771896 180.0 12.074363 9.276161 97.602307 -7.588179 13.190878 -97.706844 -0.0 -0.0 0.0 -0.0 -0.0 0.0 -80.1661 68.371792 83.260848 -145.631406 75.541837 165.573677 -168.449322 -5.686221 176.500508 5.49785 -16.735997 1.38855 -178.51928 -16.064275 89.475724 53.039716 -71.633858 39.908482 -153.453439 -21.067684 121.744506 174.804686 -60.772507 102.913253 9.417448 -29.555259 -3.210086 11.364326 -30.295656 0.511926 0.004873 1.771387 0.556475 -165.866381 -0.915452 172.225839 -162.892514 73.156939 -150.763089 -84.898808 -50.391465 -84.260121 80.1661 68.371792 -83.260848 -16.928347 14.037338 0.169172 -18.283616 71.777262 48.057126 -174.822659 -3.98939 -145.053095 2.608268 2.55464 -0.457401 122.370122 -15.081124 -109.426962 153.453439 -21.067684 -121.744506 -29.880835 -16.662854 11.478861 -3.77609 -11.559351 1.812841 166.85277 -5.791613 -142.762643 0.000473 -0.060845 0.019116 -0.748179 -12.564579 1.49175 -15.280679 53.290358 -12.03807 27.929409 -39.639932 27.245589 -0.0 0.0 -0.0 -0.0 -2.27635 -180.0 -6.880793 -5.921355 -107.859822 -11.465574 25.060334 -64.504817 -0.0 0.0 -0.0 -0.0 -2.27635 -180.0 6.880793 -5.921355 107.859822 11.465574 25.060334 64.504817
